<svg xmlns="http://www.w3.org/2000/svg" xmlns:xlink="http://www.w3.org/1999/xlink" version="1.1" x="0px" y="0px" width="100px" height="100px" viewBox="0 0 100 100" enable-background="new 0 0 100 100" xml:space="preserve">
<g id="Captions">
</g>
<g id="Your_Icon">
	<polygon fill-rule="evenodd" clip-rule="evenodd" fill="#000000" points="55.555,50 55.555,22.229 66.283,16.093 66.283,9.384    60.727,6.131 55.748,9.008 55.748,3.258 49.998,0 44.252,3.258 44.252,9.201 39.274,6.131 33.529,9.384 33.529,15.905    44.252,22.229 44.252,50  "/>
	<polygon fill-rule="evenodd" clip-rule="evenodd" fill="#000000" points="55.555,50 55.555,77.776 66.283,83.912 66.283,90.616    60.727,93.869 55.748,90.991 55.748,96.747 49.998,100 44.252,96.747 44.252,90.804 39.274,93.869 33.529,90.616 33.529,84.1    44.252,77.776 44.252,50  "/>
	<polygon fill-rule="evenodd" clip-rule="evenodd" fill="#000000" points="52.682,45.021 28.733,31.227 28.733,18.777    22.987,15.524 17.43,18.777 17.43,24.522 12.457,21.65 6.711,25.096 6.711,31.613 11.685,34.48 6.711,37.357 6.711,43.874    12.258,47.128 22.987,40.996 47.125,54.979  "/>
	<polygon fill-rule="evenodd" clip-rule="evenodd" fill="#000000" points="52.682,45.021 76.814,59.003 87.543,52.872 93.293,56.13    93.293,62.643 88.309,65.52 93.293,68.392 93.293,75.097 87.543,78.354 82.371,75.482 82.371,81.222 76.814,84.485 71.262,81.222    71.068,68.772 47.125,54.979  "/>
	<polygon fill-rule="evenodd" clip-rule="evenodd" fill="#000000" points="47.125,45.021 22.987,59.003 12.457,52.872 6.707,56.13    6.707,62.643 11.685,65.52 6.707,68.392 6.707,75.097 12.258,78.354 17.43,75.482 17.43,81.222 22.987,84.485 28.733,81.222    28.733,68.772 52.682,54.979  "/>
	<polygon fill-rule="evenodd" clip-rule="evenodd" fill="#000000" points="47.125,45.021 71.074,31.227 71.074,18.777    76.814,15.524 82.371,18.777 82.564,24.522 87.355,21.65 93.293,25.096 93.293,31.613 88.117,34.48 93.293,37.357 93.293,43.874    87.549,47.128 76.814,40.996 52.682,54.979  "/>
</g>
</svg>